# xmcd CD database file
#
# Track frame offsets:
#	150
#	16855
#	33755
#	44654
#	58491
#	71879
#	86739
#	100964
#	111748
#	132624
#	144815
#	157052
#	172561
#	186629
#	206760
#	228410
#	245962
#	268360
#	286743
#	308583
#	321668
#	336705
#
# Disc length: 4673 seconds
#
# Revision: 0
# Processed by: cddbd v1.5.2PL0 Copyright (c) Steve Scherf et al.
# Submitted via: CDex 1.51
#
DISCID=67123f16
DTITLE=Michal Tucny - best of No2 cd2
DYEAR=2007
DGENRE=Country
TTITLE0=slunce shanim
TTITLE1=reknu vam
TTITLE2=diggy liggy
TTITLE3=feleena
TTITLE4=rano budeme moudrejsi
TTITLE5=nevidim duvod
TTITLE6=mas me prectenyho
TTITLE7=obycejna streka
TTITLE8=byt hlidacem ruzi
TTITLE9=fidlej celej den
TTITLE10=pony express
TTITLE11=stary dobry western
TTITLE12=je mi lito
TTITLE13=kaw-liga
TTITLE14=to je ten posledni song
TTITLE15=dlouha cerna limuzina
TTITLE16=cerny bill a bila nelly
TTITLE17=pristup k ohni
TTITLE18=viva las vegas
TTITLE19=slamu v botach nosim
TTITLE20=jeste jednou
TTITLE21=az prijde ten den
EXTD=YEAR: 2007
EXTT0=
EXTT1=
EXTT2=
EXTT3=
EXTT4=
EXTT5=
EXTT6=
EXTT7=
EXTT8=
EXTT9=
EXTT10=
EXTT11=
EXTT12=
EXTT13=
EXTT14=
EXTT15=
EXTT16=
EXTT17=
EXTT18=
EXTT19=
EXTT20=
EXTT21=
PLAYORDER=
